<svg xmlns="http://www.w3.org/2000/svg" viewBox="0 0 512 512">
  <linearGradient id="a" x1="165.95" x2="274.64" y1="426.93" y2="185.4" gradientTransform="matrix(1.0667 0 0 -1.0667 3.27 557.53)" gradientUnits="userSpaceOnUse">
    <stop offset="0" stop-color="#00a6f9"/>
    <stop offset="1" stop-color="#0071e2"/>
  </linearGradient>
  <path fill="url(#a)" d="M453.48 43H58.52c-11.1 0-20.1 9-20.1 20.09V477.7c0 11.1 9 20.1 20.1 20.1h394.96c11.09 0 20.1-9 20.1-20.1V63.1c0-11.1-9-20.1-20.1-20.1z"/>
  <linearGradient id="b" x1="97.53" x2="377.62" y1="323.88" y2="21.12" gradientTransform="matrix(1.0667 0 0 -1.0667 3.27 557.53)" gradientUnits="userSpaceOnUse">
    <stop offset="0" stop-color="#c2cece"/>
    <stop offset="1" stop-color="#97aaaa"/>
  </linearGradient>
  <path fill="url(#b)" d="M453.47 497.8H58.52c-11.1 0-20.1-8.99-20.1-20.09v-217.7h435.15v217.7c0 11.1-9 20.1-20.1 20.1z"/>
  <linearGradient id="c" x1="236.94" x2="236.94" y1="61.31" y2="103.09" gradientTransform="matrix(1.0667 0 0 -1.0667 3.27 557.53)" gradientUnits="userSpaceOnUse">
    <stop offset="0" stop-color="#c2cece" stop-opacity="0"/>
    <stop offset=".18" stop-color="#afbcbc" stop-opacity=".18"/>
    <stop offset="1" stop-color="#5b6a6a"/>
  </linearGradient>
  <path fill="url(#c)" d="M453.47 497.8H58.52c-11.1 0-20.1-8.99-20.1-20.09v-42.2h435.15v42.2c0 11.1-9 20.1-20.1 20.1z"/>
  <linearGradient id="d" x1="61.73" x2="511.13" y1="265.13" y2="62.72" gradientTransform="matrix(1.0667 0 0 -1.0667 3.27 557.53)" gradientUnits="userSpaceOnUse">
    <stop offset="0" stop-color="#00a6f9"/>
    <stop offset="1" stop-color="#0071e2"/>
  </linearGradient>
  <path fill="url(#d)" d="M491.9 448.91H20.1A20.1 20.1 0 0 1 .52 424.33l37.9-165.65h435.15l37.91 165.65a20.1 20.1 0 0 1-19.59 24.58z"/>
  <linearGradient id="e" x1="236.94" x2="236.94" y1="119" y2="93.88" gradientTransform="matrix(1.0667 0 0 -1.0667 3.27 557.53)" gradientUnits="userSpaceOnUse">
    <stop offset="0" stop-color="#008bf2" stop-opacity="0"/>
    <stop offset="1" stop-color="#0046e2"/>
  </linearGradient>
  <path fill="url(#e)" d="M491.9 448.91H20.1A20.1 20.1 0 0 1 .52 424.33l37.9-165.65h435.15l37.91 165.65a20.1 20.1 0 0 1-19.59 24.58z"/>
  <linearGradient id="f" x1="322.14" x2="37.42" y1="194.98" y2="479.69" gradientTransform="matrix(1.0667 0 0 -1.0667 3.27 557.53)" gradientUnits="userSpaceOnUse">
    <stop offset="0" stop-color="#008bf2" stop-opacity="0"/>
    <stop offset="1" stop-color="#0046e2"/>
  </linearGradient>
  <path fill="url(#f)" d="M491.9 448.91c12.9 0 22.46-12 19.58-24.58l-37.91-165.65H38.43l190.23 190.23h263.23z"/>
  <linearGradient id="g" x1="206.99" x2="160.34" y1="138.6" y2="196.35" gradientTransform="matrix(1.0667 0 0 -1.0667 3.27 557.53)" gradientUnits="userSpaceOnUse">
    <stop offset="0" stop-color="#c2cece" stop-opacity="0"/>
    <stop offset=".18" stop-color="#afbcbc" stop-opacity=".18"/>
    <stop offset="1" stop-color="#5b6a6a"/>
  </linearGradient>
  <path fill="url(#g)" d="M473.57 448.91H38.43v.67l48.23 48.23h366.81c11.1 0 20.1-9 20.1-20.1v-28.8z"/>
  <g fill="#fff">
    <path d="M152.14 298.54v-84.79c0-22.33 5.92-38.74 17.77-49.23 11.84-10.5 27.68-15.73 47.49-15.73 19.8 0 35.69 5.24 47.63 15.73 11.95 10.49 17.92 26.9 17.92 49.23v84.79c0 22.33-5.97 38.74-17.92 49.23-11.95 10.5-27.82 15.74-47.63 15.74-19.82 0-35.65-5.25-47.5-15.74-11.84-10.49-17.76-26.9-17.76-49.23zm30.88 0c0 25.05 11.46 37.58 34.38 37.58 11.07 0 19.61-3.1 25.64-9.32 6.01-6.22 9.03-15.64 9.03-28.26v-84.79c0-12.62-3.02-22.04-9.03-28.26-6.03-6.2-14.57-9.32-25.64-9.32-22.92 0-34.38 12.53-34.38 37.59v84.78zM301.88 192.78a13.9 13.9 0 0 1 6.12-11.95l30.3-29.13a10.7 10.7 0 0 1 7.87-3.2c3.5 0 6.65.92 9.47 2.76 2.81 1.85 4.22 4.33 4.22 7.43v192.87c0 3.1-1.56 5.59-4.66 7.43a20.7 20.7 0 0 1-10.78 2.77c-4.27 0-7.92-.92-10.92-2.77-3.02-1.85-4.52-4.32-4.52-7.43V189.57l-10.2 12.82c-1.94 1.95-4.08 2.92-6.4 2.92-2.92 0-5.4-1.32-7.44-3.94a13.68 13.68 0 0 1-3.06-8.6z"/>
  </g>
  <linearGradient id="h" x1="200.88" x2="200.88" y1="248.12" y2="391.45" gradientTransform="matrix(1.0667 0 0 -1.0667 3.27 557.53)" gradientUnits="userSpaceOnUse">
    <stop offset="0" stop-color="#c2cece" stop-opacity="0"/>
    <stop offset=".18" stop-color="#afbcbc" stop-opacity=".18"/>
    <stop offset="1" stop-color="#5b6a6a"/>
  </linearGradient>
  <path fill="url(#h)" d="M252.06 258.68v39.85c0 12.64-3 22.06-9.03 28.27-6.01 6.22-14.56 9.32-25.63 9.32-22.92 0-34.39-12.54-34.39-37.59v-39.85h-30.87v39.85c0 22.35 5.92 38.76 17.77 49.24 11.84 10.49 27.68 15.74 47.5 15.74 19.8 0 35.68-5.25 47.62-15.74 11.95-10.48 17.92-26.89 17.92-49.24v-39.85h-30.89z"/>
  <linearGradient id="i" x1="319.83" x2="319.83" y1="248.12" y2="391.45" gradientTransform="matrix(1.0667 0 0 -1.0667 3.27 557.53)" gradientUnits="userSpaceOnUse">
    <stop offset="0" stop-color="#c2cece" stop-opacity="0"/>
    <stop offset=".18" stop-color="#afbcbc" stop-opacity=".18"/>
    <stop offset="1" stop-color="#5b6a6a"/>
  </linearGradient>
  <path fill="url(#i)" d="M328.98 258.68v92.88c0 3.1 1.5 5.58 4.52 7.43 3 1.85 6.64 2.76 10.92 2.76 4.08 0 7.67-.9 10.78-2.76 3.1-1.85 4.66-4.32 4.66-7.43v-92.88h-30.88z"/>
  <linearGradient id="j" x1="441.34" x2="345.24" y1="293.28" y2="268.16" gradientTransform="matrix(1.0667 0 0 -1.0667 3.27 557.53)" gradientUnits="userSpaceOnUse">
    <stop offset="0" stop-color="#008bf2" stop-opacity="0"/>
    <stop offset="1" stop-color="#0046e2"/>
  </linearGradient>
  <path fill="url(#j)" d="M511.49 424.33l-37.92-165.65V63.08c0-11.08-9-20.09-20.1-20.09h-9.5c11.1 0 20.1 9 20.1 20.1v195.59l37.91 165.65a20.1 20.1 0 0 1-19.59 24.58h9.5a20.1 20.1 0 0 0 19.6-24.58z"/>
  <linearGradient id="k" x1="205.02" x2="167.79" y1="432.49" y2="469.72" gradientTransform="matrix(1.0667 0 0 -1.0667 3.27 557.53)" gradientUnits="userSpaceOnUse">
    <stop offset="0" stop-color="#008bf2" stop-opacity="0"/>
    <stop offset="1" stop-color="#0046e2"/>
  </linearGradient>
  <path fill="url(#k)" d="M170.86 78.79a18.7 18.7 0 0 1-5.96-13.7V43h37.51l30.64 30.64a52.07 52.07 0 0 1 15.25 36.82c0 10.11-7.79 18.81-17.9 19.27a18.7 18.7 0 0 1-14.55-5.94l-44.99-44.99z"/>
  <linearGradient id="l" x1="169.12" x2="169.12" y1="508.48" y2="306.92" gradientTransform="matrix(1.0667 0 0 -1.0667 3.27 557.53)" gradientUnits="userSpaceOnUse">
    <stop offset="0" stop-color="#ffc200"/>
    <stop offset=".27" stop-color="#fb0"/>
    <stop offset=".66" stop-color="#ffa801"/>
    <stop offset="1" stop-color="#ff9102"/>
  </linearGradient>
  <path fill="url(#l)" d="M183.66 83.85A18.76 18.76 0 0 1 164.9 65.1V32.95a18.76 18.76 0 1 1 37.51 0V65.1c0 10.36-8.4 18.75-18.75 18.75z"/>
  <linearGradient id="m" x1="171.94" x2="187.8" y1="476.73" y2="476.73" gradientTransform="matrix(1.0667 0 0 -1.0667 3.27 557.53)" gradientUnits="userSpaceOnUse">
    <stop offset="0" stop-color="#ffc200" stop-opacity="0"/>
    <stop offset=".2" stop-color="#fb0" stop-opacity=".2"/>
    <stop offset=".5" stop-color="#ffa700" stop-opacity=".5"/>
    <stop offset=".85" stop-color="#f80" stop-opacity=".85"/>
    <stop offset="1" stop-color="#ff7800"/>
  </linearGradient>
  <path fill="url(#m)" d="M183.66 14.2v69.65c10.36 0 18.75-8.4 18.75-18.75V32.95c0-10.36-8.4-18.76-18.75-18.76z"/>
  <linearGradient id="n" x1="332.81" x2="295.58" y1="432.49" y2="469.72" gradientTransform="matrix(1.0667 0 0 -1.0667 3.27 557.53)" gradientUnits="userSpaceOnUse">
    <stop offset="0" stop-color="#008bf2" stop-opacity="0"/>
    <stop offset="1" stop-color="#0046e2"/>
  </linearGradient>
  <path fill="url(#n)" d="M307.17 78.79a18.7 18.7 0 0 1-5.96-13.7V43h37.51l30.63 30.64a52.07 52.07 0 0 1 15.25 36.82c0 10.11-7.78 18.81-17.88 19.27a18.7 18.7 0 0 1-14.56-5.94l-44.99-44.99z"/>
  <linearGradient id="o" x1="296.91" x2="296.91" y1="508.48" y2="306.92" gradientTransform="matrix(1.0667 0 0 -1.0667 3.27 557.53)" gradientUnits="userSpaceOnUse">
    <stop offset="0" stop-color="#ffc200"/>
    <stop offset=".27" stop-color="#fb0"/>
    <stop offset=".66" stop-color="#ffa801"/>
    <stop offset="1" stop-color="#ff9102"/>
  </linearGradient>
  <path fill="url(#o)" d="M319.97 83.85A18.76 18.76 0 0 1 301.2 65.1V32.95a18.76 18.76 0 1 1 37.51 0V65.1c0 10.36-8.4 18.75-18.75 18.75z"/>
  <linearGradient id="p" x1="299.74" x2="315.59" y1="476.73" y2="476.73" gradientTransform="matrix(1.0667 0 0 -1.0667 3.27 557.53)" gradientUnits="userSpaceOnUse">
    <stop offset="0" stop-color="#ffc200" stop-opacity="0"/>
    <stop offset=".2" stop-color="#fb0" stop-opacity=".2"/>
    <stop offset=".5" stop-color="#ffa700" stop-opacity=".5"/>
    <stop offset=".85" stop-color="#f80" stop-opacity=".85"/>
    <stop offset="1" stop-color="#ff7800"/>
  </linearGradient>
  <path fill="url(#p)" d="M319.97 14.2v69.65c10.36 0 18.75-8.4 18.75-18.75V32.95c0-10.36-8.4-18.76-18.75-18.76z"/>
</svg>
