<svg xmlns="http://www.w3.org/2000/svg" viewBox="0 0 196.65 196.65">
  <path fill="#fdcc9b" d="M83.63 146.39h29.39v32.92H83.63z"/>
  <path fill="#fcbc85" d="M83.63 150.26s12.36 7.88 29.4 6.06v-9.93h-29.4v3.87z"/>
  <ellipse cx="41.24" cy="95.34" fill="#fcbc85" rx="14.34" ry="16.36"/>
  <ellipse cx="155.41" cy="95.34" fill="#fcbc85" rx="14.34" ry="16.36"/>
  <path fill="#fdcc9b" d="M155.35 64.08c0-24.1-17.63-41.74-57.02-41.74-39.4 0-57.03 17.64-57.03 41.74s-4.12 87.6 57.03 87.6c61.14 0 57.02-63.5 57.02-87.6z"/>
  <ellipse cx="70.55" cy="91.42" fill="#3b2519" rx="6.17" ry="6.76"/>
  <circle cx="67.86" cy="88.43" r="1.85" fill="#fff"/>
  <path fill="#86461b" d="M60.67 74.66c2.92 1.46 7.61-4.96 18.34.63 1.96 1.01 3.12-8.71-8.38-8.71-9.95 0-11.72 7.2-9.95 8.08z"/>
  <ellipse cx="126.86" cy="91.42" fill="#3b2519" rx="6.17" ry="6.76"/>
  <circle cx="124.17" cy="88.43" r="1.85" fill="#fff"/>
  <path fill="#86461b" d="M135.98 74.66c-2.92 1.46-7.6-4.96-18.34.63-1.95 1.01-3.12-8.71 8.38-8.71 9.96 0 11.72 7.2 9.96 8.08z"/>
  <path fill="#fcbc85" d="M98.33 115.2c-6.1 0-9.78-4.56-9.78-2.35 0 2.2 1.77 6.39 9.78 6.39 8 0 9.77-4.19 9.77-6.4 0-2.2-3.67 2.36-9.77 2.36zM98.33 135.47c-2.11 0-3.39-1.58-3.39-.81 0 .76.61 2.2 3.39 2.2 2.77 0 3.38-1.44 3.38-2.2 0-.77-1.27.8-3.38.8z"/>
  <path fill="#f7945e" d="M98.33 129.85c-9.67 0-15.5-3.93-15.5-2.94 0 1 2.8 4.93 15.5 4.93s15.49-3.93 15.49-4.93c0-1-5.83 2.94-15.5 2.94z"/>
  <path fill="#d58e64" d="M98.33 159.61v37.04H26.9c0-14.99 37.62-37.04 71.43-37.04z"/>
  <path fill="#d58e64" d="M98.33 159.61v37.04h71.42c0-14.99-37.62-37.04-71.42-37.04z"/>
  <path fill="#bf805a" d="M98.33 159.61c-7.2 0-14.56 1-21.7 2.72.06.07 7.92 10.22 21.7 10.22 12.75 0 21.23-8.7 22.46-10.03a94.03 94.03 0 0 0-22.46-2.9z"/>
  <path fill="#fdcc9b" d="M83.63 160.9s4.3 5.33 14.7 5.33c10.4 0 14.7-5.33 14.7-5.33s-15.26-5.56-29.4 0z"/>
  <path fill="#86461b" d="M98.33 139.11v13.67c-30.72 0-40.86-16.38-43.87-20.94-2.22-3.4 14.46 11.9 29.17 11.9 6.47 0 6.17-4.63 14.7-4.63z"/>
  <path fill="#86461b" d="M98.33 139.11v13.67c30.71 0 40.85-16.38 43.86-20.94 2.22-3.4-14.46 11.9-29.17 11.9-6.46 0-6.17-4.63-14.7-4.63zM98.71 48.2V0C48.35 0 38.95 18.81 36.6 54.09c-2.36 35.27 2.95 47.41 6.47 47.37 3.52-.05 1.63-40.44 6.46-49.14 8.82-15.87 24.58-4.11 49.18-4.11z"/>
  <path fill="#86461b" d="M98.71 48.2V0c50.36 0 59.77 18.81 62.12 54.09 2.35 35.27-2.96 47.41-6.48 47.37-3.52-.05-1.62-40.44-6.46-49.14-8.81-15.87-24.58-4.11-49.18-4.11z"/>
  <path fill="#744a25" d="M67.01 165.1c-22.2 7.51-40.11 21.2-40.11 31.55h40.12v-31.54z"/>
  <path fill="#573514" d="M69.15 196.65v-33.8s-5.73 2.2-7.72 3.23l-5.85 30.57h13.57z"/>
  <path fill="#744a25" d="M129.64 165.1c22.2 7.51 40.11 21.2 40.11 31.55h-40.11v-31.54z"/>
  <path fill="#573514" d="M127.5 196.65v-33.8s5.73 2.2 7.72 3.23l5.85 30.57H127.5z"/>
</svg>
